<svg width="1000" height="1000" viewBox="0 0 1000 1000" fill="none" xmlns="http://www.w3.org/2000/svg">
<g id="myreadme">
<circle id="circle" cx="500" cy="500" r="500" fill="white"/>
<g id="Group 1">
<g id="right">
<path id="Vector" d="M662.917 377.802H824.708V701.37H662.917V377.802Z" fill="#8609C9"/>
</g>
<g id="Group">
<path id="Vector_2" d="M339.422 788.844V704.953H661.99V788.844H339.422Z" fill="#8609C9"/>
</g>
<g id="left">
<path id="Vector_3" d="M176 377.802H337.792V701.37H176V377.802Z" fill="#8609C9"/>
</g>
<g id="Group_2">
<path id="Vector_4" d="M338.016 373.797V212H661.589V373.797H338.016Z" fill="#8609C9"/>
</g>
<g id="Group_3">
<path id="Vector_5" d="M405.63 255.651C385.224 255.651 368.677 272.193 368.677 292.604C368.677 313.01 385.224 329.552 405.63 329.552C426.036 329.552 442.583 313.01 442.583 292.604C442.583 272.193 426.036 255.651 405.63 255.651Z" fill="white"/>
</g>
<g id="sharp">
<g id="Group_4">
<g id="Group_5">
<path id="Vector_6" d="M597.398 480.645C599.258 480.645 600.773 481.291 601.94 482.582C603.107 483.864 603.69 485.551 603.69 487.645V504.478C603.69 507.978 602.753 510.494 600.878 512.02C599.013 513.536 596.096 514.291 592.128 514.291H559.544L553.586 554.228H585.836C587.695 554.228 589.211 554.874 590.378 556.166C591.544 557.447 592.128 559.14 592.128 561.249V578.062C592.128 581.562 591.19 584.077 589.315 585.603C587.451 587.119 584.534 587.874 580.565 587.874H549.023L539.211 654.812C538.753 659.478 537.82 662.577 536.419 664.103C535.013 665.619 532.211 666.135 528.003 665.666L514.69 663.916C510.482 663.207 507.674 662.39 506.273 661.457C504.867 660.53 504.284 658.541 504.523 655.499L514.336 587.874H470.544L460.732 654.812C460.258 659.478 459.32 662.577 457.919 664.103C456.513 665.619 453.716 666.135 449.523 665.666L436.19 663.916C431.992 663.207 429.195 662.39 427.794 661.457C426.388 660.53 425.805 658.541 426.044 655.499L435.857 587.874H405.003C401.503 587.874 399.107 587.176 397.815 585.77C396.534 584.369 395.898 582.145 395.898 579.103V562.291C395.898 556.916 398.117 554.228 402.565 554.228H440.753L446.711 514.291H416.565C413.065 514.291 410.669 513.593 409.378 512.187C408.096 510.786 407.461 508.562 407.461 505.52V488.707C407.461 483.332 409.68 480.645 414.128 480.645H451.607L461.419 414.062C462.596 408.228 464.82 405.431 468.086 405.666L489.461 407.749C494.128 408.223 496.112 410.562 495.419 414.77L485.961 480.645H530.107L539.919 414.062C541.086 408.228 543.305 405.431 546.586 405.666L567.961 407.749C572.628 408.223 574.612 410.562 573.919 414.77L564.461 480.645H597.398ZM525.211 514.291H481.044L475.086 554.228H519.253L525.211 514.291Z" fill="#8609C9"/>
</g>
</g>
</g>
<g id="Group_6">
<path id="Vector_7" d="M590.635 255.651C570.224 255.651 553.682 272.193 553.682 292.604C553.682 313.01 570.224 329.552 590.635 329.552C611.042 329.552 627.589 313.01 627.589 292.604C627.589 272.193 611.042 255.651 590.635 255.651Z" fill="white"/>
</g>
</g>
</g>
</svg>
